<svg xmlns="http://www.w3.org/2000/svg" xmlns:xlink="http://www.w3.org/1999/xlink" width="20" height="19.023" viewBox="0 0 20 19.023">
  <defs>
    <linearGradient id="linear-gradient" x1="0.5" x2="0.369" y2="0.586" gradientUnits="objectBoundingBox">
      <stop offset="0" stop-color="#fd662f"/>
      <stop offset="0" stop-color="#fd662f"/>
      <stop offset="1" stop-color="#fd662f"/>
    </linearGradient>
  </defs>
  <g id="그룹_5615" data-name="그룹 5615" transform="translate(-1062 -765.854)">
    <g id="path1261" transform="translate(1029 730.854)" fill="#fff" stroke-linecap="round">
      <path d="M 48.51625823974609 53.10882568359375 L 43.23270034790039 50.33067321777344 L 43 50.20831298828125 L 42.76729965209961 50.33067321777344 L 37.48374176025391 53.10882568359375 L 38.4928092956543 47.22483062744141 L 38.5372314453125 46.96577072143555 L 38.34901809692383 46.78229141235352 L 34.07441329956055 42.61524200439453 L 39.98191070556641 41.75673294067383 L 40.24205017089844 41.71893310546875 L 40.35837936401367 41.48319244384766 L 43.00002288818359 36.12986373901367 L 45.64194869995117 41.48321151733398 L 45.75828170776367 41.71893310546875 L 46.01840972900391 41.75673294067383 L 51.92559432983398 42.61523818969727 L 47.65098190307617 46.78229141235352 L 47.4627685546875 46.96577072143555 L 47.5071907043457 47.22483062744141 L 48.51625823974609 53.10882568359375 Z" stroke="none"/>
      <path d="M 43.00004577636719 37.25971603393555 L 40.80675888061523 41.70444107055664 L 40.5741081237793 42.17592239379883 L 40.05381011962891 42.25153350830078 L 35.14882278442383 42.96435165405273 L 38.69804000854492 46.42426300048828 L 39.07447052001953 46.79122161865234 L 38.98561096191406 47.30935287475586 L 38.14779281616211 52.19475173950195 L 42.53459930419922 49.88812255859375 L 43 49.64341354370117 L 43.46540069580078 49.88812255859375 L 47.85220718383789 52.19475173950195 L 47.01438903808594 47.30935287475586 L 46.92552947998047 46.79122161865234 L 47.30195999145508 46.42426300048828 L 50.8511848449707 42.96434020996094 L 45.94649887084961 42.25153350830078 L 45.42623901367188 42.17592239379883 L 45.19358062744141 41.70448303222656 L 43.00004577636719 37.25971603393555 M 43 35 L 46.0903205871582 41.26193237304688 L 53 42.26613235473633 L 48 47.14031982421875 L 49.18032073974609 54.02290344238281 L 43 50.77322006225586 L 36.81967926025391 54.02290344238281 L 38 47.14031982421875 L 33 42.26613235473633 L 39.90999984741211 41.26193237304688 L 43 35 Z" stroke="none" fill="#ccc"/>
    </g>
    <path id="path1261-2" data-name="path1261" d="M43,35V50.773l-6.18,3.25L38,47.14l-5-4.874,6.91-1Z" transform="translate(1029 730.854)" fill="url(#linear-gradient)"/>
  </g>
</svg>
