<?xml version="1.0" standalone="no"?>
<!DOCTYPE svg PUBLIC "-//W3C//DTD SVG 20010904//EN"
 "http://www.w3.org/TR/2001/REC-SVG-20010904/DTD/svg10.dtd">
<svg version="1.0" xmlns="http://www.w3.org/2000/svg"
 width="512.000000pt" height="512.000000pt" viewBox="0 0 512.000000 512.000000"
 preserveAspectRatio="xMidYMid meet">

<g transform="translate(0.000000,512.000000) scale(0.100000,-0.100000)"
fill="#000000" stroke="none">
<path d="M199 3659 c-62 -9 -100 -31 -142 -79 -63 -74 -73 -176 -25 -263 19
-33 229 -195 1203 -926 649 -487 1198 -895 1220 -908 56 -32 154 -32 210 0 22
13 571 421 1220 908 1269 953 1217 910 1231 1013 13 95 -49 205 -137 240 -49
20 -132 23 -174 6 -16 -6 -528 -385 -1137 -842 l-1108 -830 -1115 836 c-613
460 -1119 836 -1123 836 -4 0 -23 4 -42 8 -19 5 -56 5 -81 1z"/>
</g>
</svg>
