<svg width="512" height="512" version="1.1" xmlns="http://www.w3.org/2000/svg" desc="Created with imagetracer.js version 1.2.6" ><path fill="rgb(0,0,0)" stroke="rgb(0,0,0)" stroke-width="1" opacity="0.7098039215686275" d="M 64.5 32 L 70 32.5 L 64.5 33 L 64.5 32 Z " /><path fill="rgb(0,0,0)" stroke="rgb(0,0,0)" stroke-width="1" opacity="0.7098039215686275" d="M 74.5 33 L 77 33.5 L 74.5 34 L 74.5 33 Z " /><path fill="rgb(0,0,0)" stroke="rgb(0,0,0)" stroke-width="1" opacity="0.7098039215686275" d="M 7.5 34 L 2.5 40 L 7.5 34 Z " /><path fill="rgb(0,0,0)" stroke="rgb(0,0,0)" stroke-width="1" opacity="0.7098039215686275" d="M 97.5 40 L 98.5 42 L 97.5 40 Z " /><path fill="rgb(0,0,0)" stroke="rgb(0,0,0)" stroke-width="1" opacity="0.7098039215686275" d="M 107.5 47 L 113.5 54 L 107.5 47 Z " /><path fill="rgb(0,0,0)" stroke="rgb(0,0,0)" stroke-width="1" opacity="0.7098039215686275" d="M 0.5 50 L 1 52.5 L 0 52.5 L 0.5 50 Z " /><path fill="rgb(0,0,0)" stroke="rgb(0,0,0)" stroke-width="1" opacity="0.7098039215686275" d="M 3.5 58 L 6.5 62 L 3.5 58 Z " /><path fill="rgb(0,0,0)" stroke="rgb(0,0,0)" stroke-width="1" opacity="0.7098039215686275" d="M 13.5 64 L 64 64.5 L 13.5 65 L 13.5 64 Z " /><path fill="rgb(0,0,0)" stroke="rgb(0,0,0)" stroke-width="1" opacity="0.7098039215686275" d="M 69.5 65 L 72 65.5 L 69.5 66 L 69.5 65 Z " /><path fill="rgb(0,0,0)" stroke="rgb(0,0,0)" stroke-width="1" opacity="0.7098039215686275" d="M 85.5 71 L 89.5 76 L 85.5 71 Z " /><path fill="rgb(0,0,0)" stroke="rgb(0,0,0)" stroke-width="1" opacity="0.7098039215686275" d="M 90.5 77 L 91.5 79 L 90.5 77 Z " /><path fill="rgb(0,0,0)" stroke="rgb(0,0,0)" stroke-width="1" opacity="0.7098039215686275" d="M 504.5 100 L 505.5 102 L 504.5 100 Z " /><path fill="rgb(0,0,0)" stroke="rgb(0,0,0)" stroke-width="1" opacity="0.7098039215686275" d="M 508.5 104 L 509.5 106 L 508.5 104 Z " /><path fill="rgb(0,0,0)" stroke="rgb(0,0,0)" stroke-width="1" opacity="0.7098039215686275" d="M 511.5 116 L 512 118.5 L 511 118.5 L 511.5 116 Z " /><path fill="rgb(0,0,0)" stroke="rgb(0,0,0)" stroke-width="1" opacity="0.7098039215686275" d="M 140 130 L 474.5 130 L 475 132.5 L 474 132.5 L 473.5 131 L 141.5 131 L 140 131.5 L 140 130 Z " /><path fill="rgb(0,0,0)" stroke="rgb(0,0,0)" stroke-width="1" opacity="0.7098039215686275" d="M 464.5 171 L 465 173.5 L 464 173.5 L 464.5 171 Z " /><path fill="rgb(0,0,0)" stroke="rgb(0,0,0)" stroke-width="1" opacity="0.7098039215686275" d="M 493.5 189 L 494 191.5 L 493 191.5 L 493.5 189 Z " /><path fill="rgb(0,0,0)" stroke="rgb(0,0,0)" stroke-width="1" opacity="0.7098039215686275" d="M 440.5 269 L 439.5 271 L 177 270.5 L 439.5 270 L 440.5 269 Z " /><path fill="rgb(0,0,0)" stroke="rgb(0,0,0)" stroke-width="1" opacity="0.7098039215686275" d="M 471.5 278 L 472 280.5 L 471 280.5 L 471.5 278 Z " /><path fill="rgb(0,0,0)" stroke="rgb(0,0,0)" stroke-width="1" opacity="0.7098039215686275" d="M 197.5 333 L 198.5 335 L 197.5 333 Z " /><path fill="rgb(0,0,0)" stroke="rgb(0,0,0)" stroke-width="1" opacity="0.7098039215686275" d="M 199.5 336 L 204.5 342 L 199.5 336 Z " /><path fill="rgb(0,0,0)" stroke="rgb(0,0,0)" stroke-width="1" opacity="0.7098039215686275" d="M 166.5 344 L 167.5 346 L 166.5 344 Z " /><path fill="rgb(0,0,0)" stroke="rgb(0,0,0)" stroke-width="1" opacity="0.7098039215686275" d="M 221.5 347 L 225 347.5 L 221.5 348 L 221.5 347 Z " /><path fill="rgb(0,0,0)" stroke="rgb(0,0,0)" stroke-width="1" opacity="0.7098039215686275" d="M 231.5 348 L 452 348.5 L 231.5 349 L 231.5 348 Z " /><path fill="rgb(0,0,0)" stroke="rgb(0,0,0)" stroke-width="1" opacity="0.7098039215686275" d="M 170.5 351 L 171.5 353 L 170.5 351 Z " /><path fill="rgb(0,0,0)" stroke="rgb(0,0,0)" stroke-width="1" opacity="0.7098039215686275" d="M 459.5 352 L 460.5 354 L 459.5 352 Z " /><path fill="rgb(0,0,0)" stroke="rgb(0,0,0)" stroke-width="1" opacity="0.7098039215686275" d="M 172.5 354 L 173.5 356 L 172.5 354 Z " /><path fill="rgb(0,0,0)" stroke="rgb(0,0,0)" stroke-width="1" opacity="0.7098039215686275" d="M 176.5 359 L 182.5 366 L 176.5 359 Z " /><path fill="rgb(0,0,0)" stroke="rgb(0,0,0)" stroke-width="1" opacity="0.7098039215686275" d="M 464.5 361 L 465 367.5 L 464 367.5 L 464.5 361 Z " /><path fill="rgb(0,0,0)" stroke="rgb(0,0,0)" stroke-width="1" opacity="0.7098039215686275" d="M 185.5 367 L 186.5 369 L 185.5 367 Z " /><path fill="rgb(0,0,0)" stroke="rgb(0,0,0)" stroke-width="1" opacity="0.7098039215686275" d="M 188.5 369 L 189.5 371 L 188.5 369 Z " /><path fill="rgb(0,0,0)" stroke="rgb(0,0,0)" stroke-width="1" opacity="0.7098039215686275" d="M 461.5 374 L 458.5 378 L 461.5 374 Z " /><path fill="rgb(0,0,0)" stroke="rgb(0,0,0)" stroke-width="1" opacity="0.7098039215686275" d="M 210.5 378 L 213 378.5 L 210.5 379 L 210.5 378 Z " /><path fill="rgb(0,0,0)" stroke="rgb(0,0,0)" stroke-width="1" opacity="0.7098039215686275" d="M 216.5 379 L 220 379.5 L 216.5 380 L 216.5 379 Z " /><path fill="rgb(0,0,0)" stroke="rgb(0,0,0)" stroke-width="1" opacity="0.7098039215686275" d="M 225.5 380 L 233 380.5 L 225.5 381 L 225.5 380 Z " /><path fill="rgb(0,0,0)" stroke="rgb(0,0,0)" stroke-width="1" opacity="0.7098039215686275" d="M 218.5 400 L 222 400.5 L 218.5 401 L 218.5 400 Z " /><path fill="rgb(0,0,0)" stroke="rgb(0,0,0)" stroke-width="1" opacity="0.7098039215686275" d="M 228.5 400 L 232 400.5 L 228.5 401 L 228.5 400 Z " /><path fill="rgb(0,0,0)" stroke="rgb(0,0,0)" stroke-width="1" opacity="0.7098039215686275" d="M 393.5 400 L 397 400.5 L 393.5 401 L 393.5 400 Z " /><path fill="rgb(0,0,0)" stroke="rgb(0,0,0)" stroke-width="1" opacity="0.7098039215686275" d="M 403.5 400 L 407 400.5 L 403.5 401 L 403.5 400 Z " /><path fill="rgb(0,0,0)" stroke="rgb(0,0,0)" stroke-width="1" opacity="0.7098039215686275" d="M 381.5 404 L 380.5 406 L 381.5 404 Z " /><path fill="rgb(0,0,0)" stroke="rgb(0,0,0)" stroke-width="1" opacity="0.7098039215686275" d="M 420.5 405 L 421.5 407 L 420.5 405 Z " /><path fill="rgb(0,0,0)" stroke="rgb(0,0,0)" stroke-width="1" opacity="0.7098039215686275" d="M 246.5 406 L 247.5 408 L 246.5 406 Z " /><path fill="rgb(0,0,0)" stroke="rgb(0,0,0)" stroke-width="1" opacity="0.7098039215686275" d="M 201.5 407 L 200.5 409 L 201.5 407 Z " /><path fill="rgb(0,0,0)" stroke="rgb(0,0,0)" stroke-width="1" opacity="0.7098039215686275" d="M 423.5 407 L 425.5 410 L 423.5 407 Z " /><path fill="rgb(0,0,0)" stroke="rgb(0,0,0)" stroke-width="1" opacity="0.7098039215686275" d="M 375.5 408 L 368.5 416 L 375.5 408 Z " /><path fill="rgb(0,0,0)" stroke="rgb(0,0,0)" stroke-width="1" opacity="0.7098039215686275" d="M 250.5 409 L 255.5 415 L 250.5 409 Z " /><path fill="rgb(0,0,0)" stroke="rgb(0,0,0)" stroke-width="1" opacity="0.7098039215686275" d="M 196.5 411 L 195.5 413 L 196.5 411 Z " /><path fill="rgb(0,0,0)" stroke="rgb(0,0,0)" stroke-width="1" opacity="0.7098039215686275" d="M 430.5 414 L 432.5 417 L 430.5 414 Z " /><path fill="rgb(0,0,0)" stroke="rgb(0,0,0)" stroke-width="1" opacity="0.7098039215686275" d="M 192.5 416 L 191.5 418 L 192.5 416 Z " /><path fill="rgb(0,0,0)" stroke="rgb(0,0,0)" stroke-width="1" opacity="0.7098039215686275" d="M 257.5 417 L 258.5 419 L 257.5 417 Z " /><path fill="rgb(0,0,0)" stroke="rgb(0,0,0)" stroke-width="1" opacity="0.7098039215686275" d="M 433.5 418 L 434.5 420 L 433.5 418 Z " /><path fill="rgb(0,0,0)" stroke="rgb(0,0,0)" stroke-width="1" opacity="0.7098039215686275" d="M 365.5 420 L 364.5 422 L 365.5 420 Z " /><path fill="rgb(0,0,0)" stroke="rgb(0,0,0)" stroke-width="1" opacity="0.7098039215686275" d="M 185.5 431 L 186 433.5 L 185 433.5 L 185.5 431 Z " /><path fill="rgb(0,0,0)" stroke="rgb(0,0,0)" stroke-width="1" opacity="0.7098039215686275" d="M 439.5 432 L 440 435.5 L 439 435.5 L 439.5 432 Z " /><path fill="rgb(0,0,0)" stroke="rgb(0,0,0)" stroke-width="1" opacity="0.7098039215686275" d="M 360.5 433 L 361 437.5 L 360 437.5 L 360.5 433 Z " /><path fill="rgb(0,0,0)" stroke="rgb(0,0,0)" stroke-width="1" opacity="0.7098039215686275" d="M 264.5 435 L 265 444.5 L 264 444.5 L 264.5 435 Z " /><path fill="rgb(0,0,0)" stroke="rgb(0,0,0)" stroke-width="1" opacity="0.7098039215686275" d="M 360.5 442 L 361 446.5 L 360 446.5 L 360.5 442 Z " /><path fill="rgb(0,0,0)" stroke="rgb(0,0,0)" stroke-width="1" opacity="0.7098039215686275" d="M 439.5 444 L 440 447.5 L 439 447.5 L 439.5 444 Z " /><path fill="rgb(0,0,0)" stroke="rgb(0,0,0)" stroke-width="1" opacity="0.7098039215686275" d="M 185.5 446 L 186 448.5 L 185 448.5 L 185.5 446 Z " /><path fill="rgb(0,0,0)" stroke="rgb(0,0,0)" stroke-width="1" opacity="0.7098039215686275" d="M 434.5 460 L 433.5 462 L 434.5 460 Z " /><path fill="rgb(0,0,0)" stroke="rgb(0,0,0)" stroke-width="1" opacity="0.7098039215686275" d="M 258.5 461 L 257.5 463 L 258.5 461 Z " /><path fill="rgb(0,0,0)" stroke="rgb(0,0,0)" stroke-width="1" opacity="0.7098039215686275" d="M 191.5 462 L 192.5 464 L 191.5 462 Z " /><path fill="rgb(0,0,0)" stroke="rgb(0,0,0)" stroke-width="1" opacity="0.7098039215686275" d="M 432.5 463 L 431.5 465 L 432.5 463 Z " /><path fill="rgb(0,0,0)" stroke="rgb(0,0,0)" stroke-width="1" opacity="0.7098039215686275" d="M 368.5 464 L 370.5 467 L 368.5 464 Z " /><path fill="rgb(0,0,0)" stroke="rgb(0,0,0)" stroke-width="1" opacity="0.7098039215686275" d="M 255.5 465 L 249.5 472 L 255.5 465 Z " /><path fill="rgb(0,0,0)" stroke="rgb(0,0,0)" stroke-width="1" opacity="0.7098039215686275" d="M 195.5 467 L 197.5 470 L 195.5 467 Z " /><path fill="rgb(0,0,0)" stroke="rgb(0,0,0)" stroke-width="1" opacity="0.7098039215686275" d="M 374.5 470 L 375.5 472 L 374.5 470 Z " /><path fill="rgb(0,0,0)" stroke="rgb(0,0,0)" stroke-width="1" opacity="0.7098039215686275" d="M 424.5 471 L 423.5 473 L 424.5 471 Z " /><path fill="rgb(0,0,0)" stroke="rgb(0,0,0)" stroke-width="1" opacity="0.7098039215686275" d="M 247.5 472 L 246.5 474 L 247.5 472 Z " /><path fill="rgb(0,0,0)" stroke="rgb(0,0,0)" stroke-width="1" opacity="0.7098039215686275" d="M 421.5 473 L 420.5 475 L 421.5 473 Z " /><path fill="rgb(0,0,0)" stroke="rgb(0,0,0)" stroke-width="1" opacity="0.7098039215686275" d="M 217.5 479 L 221 479.5 L 217.5 480 L 217.5 479 Z " /><path fill="rgb(0,0,0)" stroke="rgb(0,0,0)" stroke-width="1" opacity="0.7098039215686275" d="M 229.5 479 L 232 479.5 L 229.5 480 L 229.5 479 Z " /><path fill="rgb(0,0,0)" stroke="rgb(0,0,0)" stroke-width="1" opacity="0.7098039215686275" d="M 393.5 479 L 396 479.5 L 393.5 480 L 393.5 479 Z " /><path fill="rgb(0,0,0)" stroke="rgb(0,0,0)" stroke-width="1" opacity="0.7098039215686275" d="M 404.5 479 L 408 479.5 L 404.5 480 L 404.5 479 Z " /><path fill="rgb(0,0,0)" stroke="rgb(0,0,0)" stroke-width="1" opacity="1" d="M 14.5 32 L 63.5 32 L 64.5 33 L 79.5 34 Q 103.4 39.6 116 56.5 L 125 73.5 L 131 98 L 498.5 98 L 508 103.5 Q 512 107.5 512 115.5 L 471 278.5 L 469 290.5 L 462.5 300 L 455.5 303 L 186 303 L 192 323.5 Q 195.9 335.1 204.5 342 L 212.5 346 L 221.5 348 L 230.5 348 L 231.5 349 L 453.5 349 L 462 355.5 Q 465.7 359.8 464 369.5 L 456.5 379 L 450.5 381 L 233.5 381 L 232.5 380 L 213.5 379 L 198.5 375 Q 183.3 368.7 174 356.5 L 166 343.5 L 158 323.5 L 97 91.5 L 92 78.5 L 85.5 71 L 75.5 66 L 64.5 65 L 63.5 64 L 11.5 64 L 3 57.5 Q 0 53.5 0 46.5 Q 1.6 37.6 8.5 34 L 14.5 32 Z M 140 130 L 177 269 L 178 271 L 440 271 L 442 267 L 443 259 L 475 133 L 475 130 L 140 130 Z " /><path fill="rgb(0,0,0)" stroke="rgb(0,0,0)" stroke-width="1" opacity="1" d="M 222.5 400 L 237.5 402 Q 249.8 406.8 257 416.5 Q 262.1 422.9 264 432.5 L 264 447.5 Q 260.2 463.7 248.5 472 Q 239.2 480.2 221.5 480 Q 220.2 477.8 215.5 479 L 203.5 474 L 193 464.5 L 186 450.5 L 185 434.5 Q 188.3 417.8 199.5 409 L 209.5 403 L 222.5 400 Z " /><path fill="rgb(0,0,0)" stroke="rgb(0,0,0)" stroke-width="1" opacity="1" d="M 397.5 400 Q 420.1 400.4 430 413.5 Q 440.1 423.4 440 443.5 L 435 459.5 L 425.5 471 L 409.5 479 L 396.5 480 L 384.5 477 L 371 467.5 Q 365 461.5 362 452.5 L 360 438.5 L 364 422.5 Q 368.9 412.9 377.5 407 L 387.5 402 L 397.5 400 Z " /><path fill="rgb(0,0,0)" stroke="rgb(0,0,0)" stroke-width="1" opacity="0" d="M 0 0 L 511.5 0 L 512 0.5 L 512 109.5 L 511 109.5 Q 510.1 102.3 504.5 100 L 500.5 98 L 132 98 L 124 69.5 Q 117.8 56.2 107.5 47 Q 95.7 36.3 76.5 33 Q 71 34.5 69.5 32 L 12.5 32 Q 5.3 33.8 2 39.5 L 0.5 44 L 0 0 Z " /><path fill="rgb(0,0,0)" stroke="rgb(0,0,0)" stroke-width="1" opacity="0" d="M 0.5 53 L 6.5 62 L 13.5 65 L 68.5 65 L 83.5 70 L 90 76.5 L 96 89.5 L 156 318.5 L 166 344.5 Q 172.3 357.2 182.5 366 L 197.5 375 L 210.5 379 L 224.5 380 L 225.5 381 L 452.5 381 L 462 374.5 Q 465.9 370.4 465 361.5 L 459.5 352 L 451.5 348 L 225.5 348 L 211.5 345 Q 203.4 342.1 199 335.5 Q 190.2 321.8 186 303.5 L 457.5 303 L 467 295.5 L 470 288.5 L 472 276.5 L 511.5 119 L 512 512 L 0 512 L 0.5 53 Z M 219 400 Q 205 403 197 411 Q 188 419 185 432 Q 183 444 186 453 L 195 468 Q 203 477 218 480 Q 228 481 236 479 L 250 472 Q 262 463 265 445 L 264 431 L 256 415 Q 249 406 239 402 Q 231 399 219 400 Z M 394 400 Q 383 402 376 408 Q 363 416 360 434 Q 359 454 368 465 Q 376 477 394 480 L 408 480 Q 417 478 424 473 Q 436 464 440 448 L 440 433 Q 438 423 433 417 Q 423 399 394 400 Z " /><path fill="rgb(0,0,0)" stroke="rgb(0,0,0)" stroke-width="1" opacity="0" d="M 141 131 L 473.5 131 L 474 134.5 L 443 256.5 L 441 268.5 L 439.5 270 L 177.5 270 L 177 266.5 L 175 262.5 L 172 247.5 L 170 243.5 L 141 131 Z " /></svg>