<svg version="1.1" xmlns="http://www.w3.org/2000/svg" xmlns:xlink="http://www.w3.org/1999/xlink" width="800px" height="800px" viewBox="0,0,256,256"><g transform="translate(25.6,25.6) scale(0.8,0.8)"><g fill="#000000" fill-rule="nonzero" stroke="none" stroke-width="1" stroke-linecap="butt" stroke-linejoin="miter" stroke-miterlimit="10" stroke-dasharray="" stroke-dashoffset="0" font-family="none" font-weight="none" font-size="none" text-anchor="none" style="mix-blend-mode: normal"><g transform="translate(-0.02143,-0.07143) scale(0.14286,0.14286)"><path d="M1082.2,896.6l410.2,-410c51.5,-51.5 51.5,-134.6 0,-186.1c-51.5,-51.5 -134.6,-51.5 -186.1,0l-410.2,410l-410.1,-410.1c-51.5,-51.5 -134.6,-51.5 -186.1,0c-51.5,51.5 -51.5,134.6 0,186.1l410.2,410l-410.2,410c-51.5,51.5 -51.5,134.6 0,186.1c51.6,51.5 135,51.5 186.1,0l410.2,-410l410.2,410c51.5,51.5 134.6,51.5 186.1,0c51.1,-51.5 51.1,-134.6 -0.5,-186.2z"></path></g></g></g></svg>