<svg width="50" height="47" viewBox="0 0 50 47" fill="none" xmlns="http://www.w3.org/2000/svg">
<path d="M25.0056 11.2353C17.9113 11.2353 12.1891 16.5147 12.1891 23.0599C12.1891 29.605 17.9113 34.8844 25.0056 34.8844C32.0998 34.8844 37.8221 29.605 37.8221 23.0599C37.8221 16.5147 32.0998 11.2353 25.0056 11.2353ZM25.0056 30.7473C20.4211 30.7473 16.6732 27.2998 16.6732 23.0599C16.6732 18.8199 20.4099 15.3724 25.0056 15.3724C29.6012 15.3724 33.338 18.8199 33.338 23.0599C33.338 27.2998 29.5901 30.7473 25.0056 30.7473ZM41.3358 10.7517C41.3358 12.285 39.9972 13.5097 38.3463 13.5097C36.6843 13.5097 35.3569 12.2748 35.3569 10.7517C35.3569 9.22858 36.6955 7.99364 38.3463 7.99364C39.9972 7.99364 41.3358 9.22858 41.3358 10.7517ZM49.8243 13.5509C49.6347 9.85634 48.72 6.58375 45.7864 3.88748C42.8639 1.1912 39.3168 0.347326 35.3123 0.162085C31.1852 -0.0540285 18.8148 -0.0540285 14.6877 0.162085C10.6944 0.337035 7.14724 1.18091 4.21361 3.87719C1.27998 6.57346 0.376464 9.84604 0.175683 13.5406C-0.0585611 17.3483 -0.0585611 28.7612 0.175683 32.5689C0.36531 36.2634 1.27998 39.536 4.21361 42.2322C7.14724 44.9285 10.6832 45.7724 14.6877 45.9576C18.8148 46.1738 31.1852 46.1738 35.3123 45.9576C39.3168 45.7827 42.8639 44.9388 45.7864 42.2322C48.7089 39.536 49.6235 36.2634 49.8243 32.5689C50.0586 28.7612 50.0586 17.3586 49.8243 13.5509ZM44.4925 36.6545C43.6224 38.6715 41.9381 40.2255 39.7407 41.0385C36.4501 42.2425 28.6419 41.9647 25.0056 41.9647C21.3692 41.9647 13.5499 42.2322 10.2705 41.0385C8.08422 40.2358 6.39989 38.6818 5.51868 36.6545C4.21361 33.6186 4.51478 26.4148 4.51478 23.0599C4.51478 19.705 4.22476 12.4909 5.51868 9.46527C6.38873 7.44821 8.07306 5.89425 10.2705 5.08125C13.5611 3.87719 21.3692 4.15505 25.0056 4.15505C28.6419 4.15505 36.4612 3.88748 39.7407 5.08125C41.9269 5.88396 43.6113 7.43792 44.4925 9.46527C45.7975 12.5012 45.4964 19.705 45.4964 23.0599C45.4964 26.4148 45.7975 33.6289 44.4925 36.6545Z" fill="black"/>
</svg>
