<svg width="50" height="35" viewBox="0 0 50 35" fill="none" xmlns="http://www.w3.org/2000/svg">
<path d="M48.6505 5.42896C48.0774 3.28809 46.3944 1.60791 44.2566 1.03882C40.3813 0 24.8438 0 24.8438 0C24.8438 0 9.30617 0 5.43088 1.03882C3.29309 1.60791 1.61016 3.28809 1.03705 5.42896C0 9.3042 0 17.3799 0 17.3799C0 17.3799 0 25.4556 1.03705 29.3308C1.61016 31.4717 3.29309 33.0796 5.43088 33.6487C9.30617 34.6875 24.8438 34.6875 24.8438 34.6875C24.8438 34.6875 40.3813 34.6875 44.2566 33.6487C46.3944 33.0796 48.0774 31.4626 48.6505 29.3308C49.6875 25.4556 49.6875 17.3799 49.6875 17.3799C49.6875 17.3799 49.6875 9.3042 48.6505 5.42896ZM19.7677 24.7148V10.0449L32.749 17.3799L19.7677 24.7148Z" fill="black"/>
</svg>
